<svg xmlns="http://www.w3.org/2000/svg" width="192" height="192" viewBox="0 0 64 64">
  <defs>
    <linearGradient id="g" x1="0" y1="0" x2="1" y2="1">
      <stop offset="0%" stop-color="#a855f7"/>
      <stop offset="100%" stop-color="#fde047"/>
    </linearGradient>
  </defs>
  <rect x="0" y="0" width="64" height="64" rx="12" fill="url(#g)"/>
  <g fill="#ffffff">
    <path d="M32 12c-8.3 0-15 6-15 13.4 0 3.6 1.7 7 4.4 9.3-2.2 1-4.4 4.3-4.4 8.7C17 49.8 23.7 55 32 55s15-5.2 15-11.6c0-4.4-2.2-7.7-4.4-8.7 2.7-2.3 4.4-5.7 4.4-9.3C47 18 40.3 12 32 12z"/>
    <circle cx="24" cy="24" r="3" fill="#000000"/>
    <circle cx="40" cy="24" r="3" fill="#000000"/>
    <rect x="22" y="44" width="20" height="3" rx="1.5"/>
  </g>
</svg>

