<svg xmlns="http://www.w3.org/2000/svg" width="512" height="512" viewBox="0 0 64 64" fill="currentColor">
  <rect x="0" y="0" width="64" height="64" rx="12" fill="currentColor"/>
  <g fill="#000" opacity="0.08">
    <circle cx="16" cy="16" r="10"/>
    <circle cx="52" cy="52" r="10"/>
  </g>
  <g fill="#fff">
    <path d="M32 12c-8.3 0-15 6-15 13.4 0 3.6 1.7 7 4.4 9.3-2.2 1-4.4 4.3-4.4 8.7C17 49.8 23.7 55 32 55s15-5.2 15-11.6c0-4.4-2.2-7.7-4.4-8.7 2.7-2.3 4.4-5.7 4.4-9.3C47 18 40.3 12 32 12z"/>
    <circle cx="24" cy="24" r="3" fill="#000"/>
    <circle cx="40" cy="24" r="3" fill="#000"/>
    <rect x="22" y="44" width="20" height="3" rx="1.5"/>
  </g>
</svg>

