<svg xmlns="http://www.w3.org/2000/svg" width="192" height="192" viewBox="0 0 64 64">
  <defs>
    <linearGradient id="g" x1="0" y1="0" x2="1" y2="1">
      <stop offset="0%" stop-color="#a855f7"/>
      <stop offset="100%" stop-color="#fde047"/>
    </linearGradient>
  </defs>
  <rect x="0" y="0" width="64" height="64" rx="12" fill="url(#g)"/>
  <g fill="#0a0a0a" opacity="0.15">
    <circle cx="16" cy="16" r="10"/>
    <circle cx="52" cy="52" r="10"/>
  </g>
  <g fill="#ffffff">
    <path d="M32 10c-9 0-16 6.5-16 14.6 0 4 1.8 7.7 4.7 10.3C18.4 36.6 16 40 16 44.4 16 50.8 23 56 32 56s16-5.2 16-11.6c0-4.4-2.4-7.8-4.7-8.5 2.9-2.6 4.7-6.3 4.7-10.3C48 16.5 41 10 32 10z"/>
    <circle cx="24" cy="24" r="3" fill="#000000"/>
    <circle cx="40" cy="24" r="3" fill="#000000"/>
    <rect x="22" y="44" width="20" height="3" rx="1.5"/>
  </g>
</svg>

